[img]http://img687.imageshack.us/img687/7108/751e22531cef7e8c9879e25.jpg[/img]
[code]
   The Experiment DVDSCR AC3 XViD - IMAGiNE
********************************************************************************************************************

Ripper ...........: IMAGiNE                                        IMDB Rating.......:7.1/10                             
Video Codec.......: XVID                                         Release Date......:20/08/10
Audio Codec.......:AC3                                           Theatre Date......:12/08/10
Audio Bitrate.....:192                                              Runtime.......:1h 36mn
Subtitles.........:NIL                                                 Language..........:ENGLISH
Resolution...... 720 x 384                                      IMDb URL..........:http://www.imdb.com/title/tt0997152/


DETAILS:

Video
ID                               : 0
Format                           : MPEG-4 Visual
Format profile                   : Advanced Simple@L5
Format settings, BVOP            : Yes
Format settings, QPel            : No
Format settings, GMC             : No warppoints
Format settings, Matrix          : Default (MPEG)
Muxing mode                      : Packed bitstream
Codec ID                         : XVID
Codec ID/Hint                    : XviD
Duration                         : 1h 36mn
Bit rate                         : 1 702 Kbps
Width                            : 720 pixels
Height                           : 384 pixels
Display aspect ratio             : 1.875
Frame rate                       : 23.976 fps
Resolution                       : 24 bits
Colorimetry                      : 4:2:0
Scan type                        : Progressive
Bits/(Pixel*Frame)               : 0.257
Stream size                      : 1.14 GiB (89%)
Writing library                  : XviD 1.2.1 (UTC 2008-12-04)

Audio
ID                               : 1
Format                           : AC-3
Format/Info                      : Audio Coding 3
Codec ID                         : 2000
Duration                         : 1h 36mn
Bit rate mode                    : Constant
Bit rate                         : 192 Kbps
Channel(s)                       : 2 channels
Channel positions                : L R
Sampling rate                    : 48.0 KHz
Stream size                      : 132 MiB (10%)
Alignment                        : Aligned on interleaves
Interleave, duration             : 42 ms (1.00 video frame)
Interleave, preload duration     : 512 ms



SOURCES:

VIDEO:The Experiment DVDSCR VOBS .............. Transformerz,Thanks
AUDIO:The Experiment DVDSCR VOBS .............. Transformerz,Thanks

NOTES:

IMAGiNE bringing you another release.....The Experiment 

Ok source for this was good,needed a few issues sorted out,but overall a nice dvdscreener.
For this we did a script which contained.....crop,resize,white balance,rgb eq,sharpness and also fixed
the bad ivtc.
Audio was just kept how it was on the dvdr..

Enjoy folks 
[/code]
Screens:
[img]http://img695.imageshack.us/img695/7230/96962323.png[/img]
[img]http://img822.imageshack.us/img822/4152/17353915.png[/img]
[img]http://img827.imageshack.us/img827/5329/70729134.png[/img]
[img]http://img230.imageshack.us/img230/6283/50388755.png[/img]
